<?xml version="1.0" encoding="UTF-8"?><svg id="Layer_1" xmlns="http://www.w3.org/2000/svg" viewBox="0 0 956.14 153.58"><defs><style>.cls-1{fill:#161624;}</style></defs><path class="cls-1" d="m485.27,13.55h-38.64v126.49h28.11v-49.19h10.54c25.59,0,38.65-17.3,38.65-38.65s-11.44-38.65-38.65-38.65Zm.19,49.19h-10.72v-20.71h10.72c8.04,0,10.36,4.64,10.36,10.36s-2.61,10.36-10.36,10.36Z"/><polygon class="cls-1" points="179.66 41.65 207.77 41.65 207.77 140.03 235.88 140.03 235.88 41.65 263.98 41.65 263.98 13.55 179.66 13.55 179.66 41.65"/><polygon class="cls-1" points="278.02 13.55 278.02 41.65 278.02 62.73 278.02 90.84 278.02 111.92 278.02 140.03 306.13 140.03 348.29 140.03 348.29 111.92 306.13 111.92 306.13 90.84 334.23 90.84 334.23 62.73 306.13 62.73 306.13 41.65 348.29 41.65 348.29 13.55 306.13 13.55 278.02 13.55"/><polygon class="cls-1" points="362.32 13.55 362.32 41.65 362.32 62.73 362.32 90.84 362.32 111.92 362.32 140.03 390.43 140.03 432.59 140.03 432.59 111.92 390.43 111.92 390.43 90.84 418.53 90.84 418.53 62.73 390.43 62.73 390.43 41.65 432.59 41.65 432.59 13.55 390.43 13.55 362.32 13.55"/><polygon class="cls-1" points="769.8 13.55 741.7 13.55 741.7 111.92 741.7 140.03 769.8 140.03 811.96 140.03 811.96 111.92 769.8 111.92 769.8 13.55"/><rect class="cls-1" x="826" y="13.55" width="28.11" height="126.49"/><path class="cls-1" d="m601.2,48.19v46.16c0,13.64-7.86,17.57-17.57,17.57s-17.57-4.43-17.57-17.57V13.55h-28.11v77.3h0v3.51c0,30.24,20.45,45.68,45.67,45.68s45.67-13.52,45.67-45.68V13.55h-28.11v34.65Z"/><path class="cls-1" d="m710.26,74.12c6.89-6.4,10.37-15.43,10.37-25.44,0-19.41-11.44-35.14-38.64-35.14h-38.65v126.49h45.68c25.58,0,38.65-15.72,38.65-35.14,0-13.25-5.34-24.79-17.4-30.77Zm-28.09-32.1c8.04,0,10.36,4.64,10.36,10.36s-2.61,10.36-10.36,10.36h-10.73v-20.71h10.73Zm7.03,69.9h-17.75v-20.71h17.75c8.04,0,10.35,4.63,10.35,10.36s-2.61,10.36-10.35,10.36Z"/><path class="cls-1" d="m931.33,41.65c8.63,0,16.78,1.09,24.81,3.62v-28.11c-7.16-2.32-15.38-3.61-24.81-3.61-44.63,0-63.03,28.32-63.03,63.24s17,63.24,63.03,63.24c9.47,0,17.69-1.21,24.81-3.43v-28.38c-1.51.47-3.07.92-4.67,1.33-6.28,1.63-13.14,2.36-20.14,2.36-25.82,0-35.02-15.52-35.02-35.12s9.99-35.14,35.02-35.14Z"/><path class="cls-1" d="m155.02,88.38c3.9-2.06,4.8-6.36,4.8-6.36-5.87-.81-10.38,1.69-12.44,6.08.67-3.03,1.14-6.11,1.4-9.23.97-.05,4.67-.41,7.67-2.74,3.48-2.7,3.63-7.1,3.63-7.1-5.87.22-9.86,3.41-11.16,8.03.07-1.3.12-2.61.12-3.91,0-1.68-.07-3.36-.18-5.03,1.08-.23,4.54-1.15,7.08-3.79,3.06-3.18,2.57-7.55,2.57-7.55-5.64,1.04-9.1,4.62-9.84,9.21-.3-2.86-.76-5.7-1.41-8.48.69-.24,4.34-1.64,6.64-4.88,2.55-3.59,1.41-7.84,1.41-7.84-5.83,2.02-8.74,6.56-8.31,11.66-.77-3.11-1.76-6.16-2.96-9.13.45-.23,4.06-2.15,5.94-5.83,2-3.92.26-7.96.26-7.96-5.72,2.96-7.88,8.18-6.37,13.38-1.35-3.26-2.94-6.43-4.79-9.48.16-.13,3.54-2.76,4.71-6.9,1.19-4.24-1.31-7.86-1.31-7.86-5.08,4.07-6.15,9.69-3.55,14.52-.62-1.01-1.25-2.01-1.92-2.99-1.31-1.91-2.71-3.74-4.19-5.5.63-.69,3.03-3.57,3.52-7.36.57-4.37-2.43-7.59-2.43-7.59-4.03,4.32-4.61,9.43-2.23,13.63-1.99-2.25-4.12-4.37-6.38-6.34.4-.58,2.52-3.89,2.44-7.89-.09-4.4-3.53-7.14-3.53-7.14-3.49,5.09-3.12,10.48.25,14.32-2.45-2.07-5.05-3.96-7.76-5.66.34-.7,1.91-4.24,1.26-8.13-.73-4.34-4.53-6.55-4.53-6.55-2.69,5.49-1.59,10.71,2.2,14.03-2.56-1.54-5.23-2.92-8-4.13-3.37-5.43-8.79-7.22-14.02-5.31,0,0,2.12,4.03,6.21,5.95,2.75,1.28,5.48.85,6.99.42,2.67,1.15,5.25,2.45,7.71,3.9-3.8-1.09-7.79.29-10.59,4.26,0,0,3.17,1.92,6.67.7,2.9-1.01,4.81-3.3,5.39-4.06,2.52,1.57,4.91,3.29,7.18,5.15-3.61-1.64-7.76-.85-11.12,2.68,0,0,2.86,2.36,6.51,1.66,3-.58,5.22-2.56,5.91-3.23,2.39,2.07,4.62,4.29,6.68,6.66-3.38-2.51-7.84-2.5-11.87.64,0,0,2.48,2.76,6.18,2.61,3.21-.13,5.8-1.92,6.44-2.4,1.86,2.21,3.58,4.55,5.14,6.98-2.96-2.52-7.11-2.94-11.29-.57,0,0,2.05,3.09,5.74,3.48,2.96.31,5.59-.86,6.52-1.34,1.51,2.51,2.87,5.11,4.05,7.8-2.42-2.94-6.35-4.1-10.83-2.61,0,0,1.41,3.42,4.95,4.53,2.85.89,5.67.25,6.67-.04,1.09,2.69,2,5.46,2.74,8.3-1.94-3.41-5.72-5.22-10.48-4.38,0,0,.9,3.59,4.25,5.2,2.75,1.32,5.7,1.05,6.66.92.72,3.12,1.22,6.33,1.5,9.58-1.15-4.17-4.79-6.93-10.01-6.8,0,0,.35,3.69,3.42,5.78,2.74,1.87,6,1.92,6.66,1.9.11,1.63.18,3.26.18,4.91,0,1.47-.05,2.92-.14,4.37-.68-4.1-3.83-7.18-8.85-7.79,0,0-.19,3.7,2.55,6.21,2.33,2.14,5.37,2.71,6.21,2.83-.27,3.14-.75,6.23-1.44,9.26-.03-4.08-2.6-7.58-7.38-9.04,0,0-.82,3.61,1.44,6.56,1.91,2.49,4.78,3.58,5.61,3.86-.72,2.85-1.62,5.64-2.68,8.35.4-3.91-1.66-7.59-6.04-9.66,0,0-1.34,3.46.47,6.7,1.47,2.64,4.01,4.12,4.9,4.58-1.19,2.79-2.55,5.49-4.09,8.08,1.11-3.89-.34-7.95-4.46-10.71,0,0-1.84,3.22-.54,6.69,1.09,2.89,3.45,4.76,4.21,5.29-1.46,2.35-3.06,4.6-4.78,6.75,1.25-3.51.29-7.4-3.15-10.51,0,0-2.28,2.91-1.5,6.54.61,2.79,2.42,4.87,3.23,5.68-1.8,2.1-3.73,4.09-5.77,5.96,1.75-3.15,1.5-7.05-1.18-10.67,0,0-2.81,2.42-2.75,6.12.05,2.86,1.43,5.26,2.05,6.21-2.12,1.8-4.36,3.48-6.69,5.02,2.4-2.89,2.83-6.91.62-11.03,0,0-3.13,1.98-3.61,5.66-.37,2.92.71,5.55,1.18,6.52-2.64,1.61-5.4,3.06-8.27,4.3,3.37-2.44,4.71-6.64,3-11.41,0,0-3.39,1.49-4.41,5.06-.87,3.06,0,6.06.26,6.84-2.7,1.12-5.5,2.06-8.38,2.82,3.42-2,5.18-5.86,4.21-10.64,0,0-3.57.99-5.09,4.37-1.25,2.77-.91,5.71-.76,6.68-.33.08-.66.16-1,.23l-.54.12c-2.85.62-8.47,1.86-14.14,3.85-5.66-1.99-11.29-3.23-14.14-3.85l-.54-.12c-.33-.08-.67-.15-1-.23.16-.97.49-3.91-.76-6.68-1.52-3.39-5.1-4.37-5.1-4.37-.96,4.78.79,8.64,4.22,10.64-2.88-.76-5.67-1.7-8.38-2.82.26-.79,1.13-3.78.26-6.84-1.02-3.57-4.41-5.06-4.41-5.06-1.71,4.77-.36,8.97,3.01,11.41-2.87-1.24-5.63-2.69-8.27-4.3.47-.97,1.55-3.6,1.18-6.52-.48-3.68-3.61-5.66-3.61-5.66-2.21,4.11-1.79,8.14.61,11.03-2.33-1.53-4.57-3.22-6.69-5.02.63-.95,2.01-3.34,2.05-6.21.06-3.71-2.75-6.12-2.75-6.12-2.69,3.62-2.94,7.52-1.18,10.67-2.04-1.87-3.97-3.86-5.77-5.96.8-.81,2.62-2.88,3.23-5.68.79-3.63-1.5-6.54-1.5-6.54-3.44,3.11-4.4,7-3.15,10.51-1.73-2.15-3.32-4.4-4.78-6.75.76-.54,3.12-2.4,4.21-5.29,1.31-3.48-.53-6.69-.53-6.69-4.12,2.76-5.57,6.82-4.45,10.7-1.54-2.59-2.9-5.29-4.09-8.08.89-.46,3.43-1.94,4.9-4.58,1.81-3.24.47-6.7.47-6.7-4.39,2.07-6.44,5.74-6.04,9.66-1.07-2.71-1.97-5.5-2.69-8.35.84-.28,3.7-1.36,5.61-3.86,2.26-2.95,1.43-6.56,1.43-6.56-4.77,1.45-7.34,4.95-7.38,9.04-.69-3.03-1.18-6.11-1.44-9.26.85-.12,3.88-.69,6.21-2.83,2.73-2.52,2.54-6.21,2.54-6.21-5.02.61-8.17,3.69-8.85,7.78-.1-1.44-.15-2.9-.15-4.37,0-1.65.06-3.29.18-4.91.67.01,3.92-.04,6.66-1.9,3.07-2.09,3.42-5.78,3.42-5.78-5.21-.12-8.85,2.63-10,6.8.28-3.25.77-6.45,1.49-9.57.97.14,3.92.4,6.67-.92,3.34-1.61,4.24-5.2,4.24-5.2-4.76-.84-8.54.97-10.48,4.38.73-2.84,1.65-5.61,2.73-8.3,1,.29,3.82.93,6.67.04,3.54-1.11,4.95-4.53,4.95-4.53-4.49-1.48-8.41-.32-10.83,2.61,1.18-2.69,2.53-5.3,4.05-7.8.93.48,3.56,1.65,6.52,1.34,3.69-.39,5.74-3.48,5.74-3.48-4.18-2.37-8.32-1.95-11.29.57,1.56-2.43,3.28-4.77,5.14-6.98.64.48,3.22,2.27,6.44,2.4,3.71.15,6.18-2.61,6.18-2.61-4.03-3.14-8.49-3.15-11.87-.64,2.06-2.37,4.29-4.59,6.68-6.66.69.68,2.91,2.66,5.91,3.24,3.65.7,6.5-1.66,6.5-1.66-3.36-3.53-7.51-4.32-11.12-2.68,2.26-1.86,4.66-3.58,7.18-5.15.58.77,2.49,3.06,5.39,4.06,3.51,1.22,6.67-.7,6.67-.7-2.8-3.97-6.8-5.35-10.6-4.26,2.46-1.45,5.04-2.75,7.71-3.9,1.51.43,4.25.87,6.99-.42,4.1-1.92,6.22-5.95,6.22-5.95-5.22-1.91-10.65-.12-14.01,5.31-2.77,1.21-5.44,2.59-8,4.13,3.8-3.32,4.89-8.54,2.21-14.03,0,0-3.8,2.21-4.53,6.55-.65,3.89.92,7.43,1.26,8.13-2.72,1.71-5.31,3.6-7.76,5.66,3.37-3.84,3.74-9.23.25-14.32,0,0-3.45,2.74-3.54,7.14-.08,4,2.04,7.31,2.44,7.89-2.26,1.97-4.38,4.09-6.38,6.34,2.37-4.2,1.8-9.31-2.23-13.63,0,0-2.99,3.22-2.42,7.59.49,3.79,2.89,6.66,3.52,7.36-1.48,1.76-2.88,3.58-4.19,5.5-.67.98-1.31,1.99-1.93,2.99,2.6-4.84,1.55-10.46-3.54-14.53,0,0-2.5,3.62-1.31,7.86,1.17,4.14,4.54,6.78,4.7,6.9-1.85,3.05-3.45,6.21-4.79,9.48,1.51-5.2-.65-10.42-6.36-13.38,0,0-1.74,4.04.26,7.96,1.88,3.68,5.48,5.6,5.94,5.83-1.2,2.97-2.19,6.02-2.96,9.13.42-5.09-2.48-9.64-8.31-11.66,0,0-1.14,4.25,1.41,7.84,2.3,3.25,5.95,4.64,6.64,4.88-.65,2.79-1.11,5.62-1.41,8.49-.74-4.59-4.2-8.17-9.84-9.22,0,0-.49,4.37,2.56,7.55,2.55,2.64,6,3.56,7.08,3.79-.12,1.67-.18,3.34-.18,5.03,0,1.31.04,2.62.12,3.92-1.3-4.62-5.29-7.82-11.17-8.04,0,0,.14,4.4,3.63,7.1,3,2.33,6.7,2.68,7.66,2.74.26,3.11.73,6.19,1.41,9.22-2.06-4.39-6.57-6.88-12.44-6.08,0,0,.9,4.3,4.8,6.36,3.36,1.77,7.06,1.48,8.02,1.37.74,2.99,1.68,5.92,2.81,8.78-2.65-4.16-7.53-6.04-13.29-4.37,0,0,1.52,4.13,5.67,5.6,3.66,1.3,7.37.41,8.19.18,1.13,2.69,2.44,5.31,3.9,7.84-3.25-3.42-8.2-4.4-13.47-1.98,0,0,2.12,3.86,6.44,4.69,3.69.71,7.12-.61,8.04-1.01,1.54,2.49,3.24,4.88,5.1,7.16.29.35.58.7.87,1.05-3.77-3.79-9.33-4.45-14.68-.97,0,0,2.65,3.51,7.05,3.71,4.24.19,7.76-2.12,8.02-2.29,2.39,2.78,4.99,5.35,7.77,7.7-4.5-3.27-10.28-2.93-14.97,1.66,0,0,3.29,2.92,7.65,2.25,4.29-.66,7.34-3.74,7.43-3.83,2.59,2.18,5.34,4.17,8.21,5.95-4.83-2.33-10.3-1.09-14.19,3.99,0,0,3.68,2.42,7.89,1.13,3.95-1.21,6.47-4.43,6.78-4.83,2.54,1.54,5.18,2.92,7.89,4.12-4.71-.9-9.34,1.24-12.17,6.39,0,0,4,1.84,7.97-.06,3.4-1.64,5.38-4.75,5.87-5.61,2.91,1.2,5.9,2.2,8.96,2.99-5.01-.46-9.54,2.33-11.67,8.04,0,0,4.22,1.24,7.87-1.21,3.29-2.21,4.78-5.82,5.05-6.52.34.08.68.16,1.02.24l.54.12c4.7,1.03,8.84,2.14,12.43,3.31-5.47,2.1-10.67,4.93-13.06,8.62-.2.3-.11.7.19.89.11.07.23.11.35.11.21,0,.42-.11.54-.29,2.07-3.19,6.75-6.08,13.96-8.65,7.22,2.57,11.89,5.46,13.96,8.65.13.19.33.29.54.29.12,0,.24-.03.35-.11.3-.19.38-.59.19-.89-2.39-3.69-7.59-6.52-13.06-8.62,3.59-1.18,7.74-2.28,12.43-3.31l.54-.12c.34-.07.68-.15,1.02-.24.26.7,1.76,4.3,5.05,6.52,3.66,2.46,7.87,1.21,7.87,1.21-2.13-5.71-6.66-8.5-11.67-8.04,3.06-.79,6.05-1.79,8.97-2.99.49.86,2.46,3.97,5.87,5.61,3.97,1.9,7.97.06,7.97.06-2.83-5.15-7.46-7.29-12.17-6.39,2.72-1.2,5.35-2.58,7.89-4.12.3.4,2.83,3.62,6.77,4.83,4.21,1.29,7.89-1.13,7.89-1.13-3.88-5.08-9.35-6.32-14.18-3.99,2.87-1.78,5.62-3.76,8.21-5.95.09.09,3.14,3.18,7.43,3.83,4.36.67,7.64-2.25,7.64-2.25-4.7-4.59-10.47-4.93-14.97-1.66,2.78-2.35,5.38-4.92,7.77-7.7.27.19,3.79,2.48,8.02,2.29,4.4-.2,7.05-3.71,7.05-3.71-5.35-3.48-10.9-2.82-14.68.96.29-.34.58-.69.86-1.04,1.85-2.28,3.56-4.68,5.09-7.16.93.4,4.35,1.72,8.04,1.01,4.33-.83,6.44-4.69,6.44-4.69-5.27-2.42-10.21-1.45-13.47,1.97,1.47-2.53,2.77-5.15,3.9-7.84.82.23,4.53,1.12,8.2-.18,4.15-1.47,5.67-5.6,5.67-5.6-5.77-1.67-10.65.22-13.29,4.37,1.13-2.86,2.06-5.79,2.8-8.78.96.12,4.67.4,8.02-1.37Z"/><path class="cls-1" d="m55.39,60.62s.24,3.51.24,3.81-.06,5.66-.18,6.31c-.12.65-.54,6.31-.77,8.93-.24,2.62-.59,9.94-.59,10.89s-.36,8.1-.36,9.41v6.37c0,1.13.3,3.81.42,4.05.12.24,14.53,1.25,18.69,1.73,4.17.48,9.46.95,13.87.83,4.41-.12,11.07-.71,14.23-.71s5.36,0,5.6-.24c.24-.24-.24-5.83-.24-7.68s-.24-10.54-.24-12.74-.18-7.98-.18-8.81-.24-10.18-.41-13.33c-.18-3.16-.66-8.57-.54-8.93.12-.36,1.78-.72,2.44-.6.66.12,3.81.6,4.52.6s2.74.18,3.16-.12c.41-.3,4.05-7.14,4.46-8.1.42-.95,2.03-4.76,2.03-5.06s-5.42-2.68-6.97-3.51c-1.55-.83-5.8-2.95-7.26-3.42-1.46-.48-3.36-.95-4.29-1.4-.92-.45-4.05-1.28-5.75-1.67-1.69-.39-4.05-1.3-4.92-1.38-.86-.09-2.29-.3-2.53-.33-.24-.03-1.16-.77-1.4-.63-.24.15-2.62,2.37-4.28,2.72-1.67.36-5.74.5-7.76-.27-2.02-.77-3.15-2.69-3.45-2.72-.3-.03-1.49.35-2.74.59-1.25.24-4.64.42-5.83.68-1.19.27-4.05,1.25-4.85,1.4-.81.15-3.3,1.63-5.27,2.23-1.96.59-4.47,2.05-6.34,2.62-1.88.57-4.64,1.64-5.86,2.02-1.22.39-3.36,1.43-3.45,1.64-.09.21,1.22,3.63,2.12,5.57.89,1.94,2.32,5.09,2.68,6.07.36.98.75,1.88,1.07,1.96.33.09,3,.66,3.75.77.74.12,3.15.15,3.96.09.8-.06,2.53,0,3.24.36Z"/></svg>