<svg width="226" height="40" viewBox="0 0 226 40" fill="none" xmlns="http://www.w3.org/2000/svg">
<path fill-rule="evenodd" clip-rule="evenodd" d="M23.6992 0.0325928H19.0897L19.1177 0C11.3095 0 7.94319 1.41078 6.54638 8.27843L6.11803 10.1408H2.16505L0.814806 16.473H4.81899L0 39.2876H8.93027L13.7446 16.473H18.1967C15.9036 19.8713 14.8993 23.9381 14.8993 27.3589C14.8993 35.9074 20.8683 39.9674 28.6625 39.9674C36.4193 39.9674 41.1701 35.8817 43.6488 30.9996C43.6412 31.175 43.6355 31.3505 43.6317 31.526C43.6317 37.2623 46.7093 39.9674 52.0125 39.9674V40C56.9898 40 59.9976 37.8908 61.8601 35.5628L61.0499 39.2876H69.7613L75.9446 10.1735H67.0143L63.7551 25.4359C62.6702 30.6321 60.128 33.2255 56.5568 33.2255C54.0705 33.2255 52.8786 31.7961 52.8786 29.0351C52.9052 27.8131 53.0692 26.598 53.3675 25.4127L56.6267 10.1502H47.6964L45.6734 19.7894C44.7323 12.7506 39.2113 9.39592 32.1266 9.39592C27.2371 9.39592 23.5327 11.0138 20.836 13.4299L21.5388 10.1502H15.0995L15.3696 8.69281C15.9097 6.47188 16.6127 6.30892 19.8068 6.30892H22.349L23.6992 0.0325928ZM31.4747 16.3241C26.6045 16.3241 24.1135 21.3526 24.1135 26.9259C24.1135 30.9859 25.9015 33.0392 29.2352 33.0392C34.1054 33.0392 36.5964 28.0107 36.5964 22.4328C36.5964 18.3774 34.8084 16.3241 31.4747 16.3241Z" fill="#161712"/>
<path d="M205.104 0.0372464H214.029V39.2643H205.104V0.0372464Z" fill="#161712"/>
<path fill-rule="evenodd" clip-rule="evenodd" d="M189.05 15.295C186.182 15.295 184.18 16.7524 183.854 19.5693H175.723L171.184 39.2643H160.792L156.9 17.7814L153.003 39.2643H142.671L135.962 10.1502H145.106L148.947 29.9011L152.3 10.1502H161.5L164.908 29.9011L168.749 10.1502H177.894L176.57 15.8943C178.556 12.0953 183.211 9.23289 189.804 9.23289C198.138 9.23289 202.957 12.5852 202.79 21.4643L202.683 27.7918C202.632 31.5818 202.79 36.7733 203.33 39.2643H194.567L194.46 35.7443C192.295 38.8313 188.831 39.9674 184.683 39.9674C179.165 39.9674 174.621 36.7081 174.621 31.4189C174.621 24.2765 182.685 21.8926 193.99 21.0825V19.9464C193.99 16.5382 192.258 15.2904 189.068 15.2904L189.05 15.295ZM187.932 33.9145C191.499 33.9145 194.209 32.4013 194.209 27.0469V26.3298C187.984 26.8699 183.816 27.6847 183.816 30.767C183.816 32.662 185.604 33.9052 187.932 33.9052V33.9145Z" fill="#161712"/>
<path d="M225.381 0.0372464H216.451V39.2643H225.381V0.0372464Z" fill="#161712"/>
<path fill-rule="evenodd" clip-rule="evenodd" d="M119.842 14.0472C121.788 11.6121 124.6 9.55882 129.47 9.55882C134.773 9.55882 137.851 12.264 137.851 18.0514C137.822 19.6908 137.623 21.3228 137.26 22.9216L133.8 39.2876H124.87L128.129 24.1369C128.42 22.9491 128.576 21.7325 128.595 20.5098C128.595 17.8047 127.403 16.4544 124.917 16.4544C121.401 16.4544 118.803 18.9407 117.718 24.1369L114.459 39.2876H105.557L105.562 39.2643H99.9884C94.2568 39.2643 91.7099 38.3983 91.7099 34.4453C91.7445 33.3164 91.8895 32.1936 92.143 31.093L94.6945 19.1596C93.6785 18.9679 92.646 18.8774 91.6122 18.8895C87.8268 18.8895 85.1729 20.1839 84.3069 24.5187L81.1687 39.2876H72.2431L78.4077 10.1548H87.0679L85.9458 15.4999C87.9898 12.3618 91.2862 9.81958 95.7234 9.81958H96.6826L98.3122 2.18834H107.238L105.51 10.1455H111.741L113.886 0.0325774H122.817L119.842 14.0472ZM110.398 16.473H104.156L101.394 29.5006C101.296 29.982 101.241 30.4714 101.232 30.9626C101.232 32.4991 102.153 32.825 104.533 32.825H106.928L110.398 16.473Z" fill="#161712"/>
</svg>
